#!OML:ASF F:\VICON\USERDATA\INSTALL\rory3\rory3.ASF
:FULLY-SPECIFIED
:DEGREES
55
root -0.23023124956137742 18.706156359282257 22.0230397453598 4.837135302550059 5.819343121659953 -3.945332897058395
lfemur -41.39870574244707 -2.88700742306584 -18.484798413053653
ltibia 46.62793553221302
lfoot 1.640718448759125 -13.49557845242433
ltoes -19.852544159975263
rfemur 16.407943668504743 5.232373761110706 34.78273207020993
rtibia 28.08198336476125
rfoot 29.644467633250283 -0.35614390523738937
rtoes 7.548955425588119
lowerback 11.279012789617818 2.151738053882736 6.966099043426676
upperback -2.0458411935119525 3.92962842440479 0.5247958905346273
thorax -8.38760397232327 1.6021314759648226 -4.043524414575957
lowerneck -18.271169714637022 -6.477221176711939 -2.271481476475384
upperneck 15.737522461308991 -8.904178945496287 3.545096994360228
head 8.194725288073371 -4.046916722039404 0.5069566571695806
lclavicle -7.406143561787739e-16 -6.39430384741508e-16
lhumerus -73.6840900711421 -3.249905037338881 94.53986786117717
lradius 117.46359118566556
lwrist 39.36948303511876
lhand -23.979963965647986 3.1744004547959346
lfingers 7.125020000000058
lthumb 2.4960169389513815 33.06637380011732
rclavicle -7.406143561787739e-16 -6.39430384741508e-16
rhumerus -35.22612238117267 16.886264458255212 -96.84374678062724
rradius 122.27021136521472
rwrist -21.03213550992165
rhand -15.170818979716369 20.634706950545436
rfingers 7.125020000000058
rthumb 10.98878469011488 29.99655538318009
56
root -0.22551256796438307 18.795970768635417 23.249230038538926 5.0226242463923345 5.689467712304202 -3.95950981912855
lfemur -39.50189648797712 -2.5032895065960914 -18.616338763851118
ltibia 37.773550018154154
lfoot 3.777280091722195 -14.378603253466746
ltoes -19.977314098098994
rfemur 17.599662105186383 6.935132823130434 35.523957511125204
rtibia 30.085275847524464
rfoot 31.583412035123505 -0.5012551946208248
rtoes 10.786412587672356
lowerback 10.727610801507202 2.442023395370029 7.008446798232307
upperback -2.1171949728540675 4.272758013169474 0.358170361426539
thorax -8.116650495091687 1.7707308529666919 -4.230654567341571
lowerneck -18.305080605522864 -6.6182284554135355 -2.318782438476369
upperneck 16.22005622261771 -9.129377352750161 3.725875015727953
head 8.38871291929322 -4.135604228502785 0.541554377124946
lclavicle -5.011659670375803e-16 -4.54024809008023e-16
lhumerus -75.23734434188924 -1.2665533916987293 93.70836892426269
lradius 119.2378397023231
lwrist 40.20091298570989
lhand -23.46196874820763 2.6223014308975507
lfingers 7.125020000000058
lthumb 2.996085640537304 32.50030412195411
rclavicle -5.011659670375803e-16 -4.54024809008023e-16
rhumerus -35.34353223943141 17.971694794530624 -97.10299843227416
rradius 122.49515192408359
rwrist -21.2976975730617
rhand -14.75879481450139 14.805092670299649
rfingers 7.125020000000058
rthumb 11.385341346902162 32.434659781772254
57
root -0.2228096012823828 18.81976748931599 24.498978431069077 5.035712476380771 5.456737332797868 -4.037958919841121
lfemur -37.46400648534265 -1.9016804581831726 -18.665802847355614
ltibia 31.409839969628898
lfoot 5.723604079245883 -14.607794089343848
ltoes -19.425247187937632
rfemur 17.710285611084608 8.186676903045408 36.257489901147835
rtibia 34.46716537562675
rfoot 31.06690123479284 -1.4915888479265327
rtoes 12.324023047107636
lowerback 10.666221769943949 2.671194995779755 6.9738288410915
upperback -2.065424959385039 4.552468395152556 0.30576870739641415
thorax -7.962446850619579 1.9122313010666434 -4.247026989857723
lowerneck -18.457751331751478 -6.688190052314471 -2.3483855495005064
upperneck 16.437109591147266 -9.245755783991934 3.8978707279846874
head 8.509463344704551 -4.174358290220619 0.5824628362818631
lclavicle -1.740267100312516e-16 -2.0071993657869087e-16
lhumerus -75.8307846448032 0.37437438930781175 93.17778823367692
lradius 120.70885237936953
lwrist 40.75048139843118
lhand -22.672204734132535 2.0052638885269527
lfingers 7.125020000000059
lthumb 3.758516149313901 31.86036187295189
rclavicle -1.740267100312516e-16 -2.0071993657869087e-16
rhumerus -35.33575989395615 18.905441447196523 -97.21914080108394
rradius 122.36392911823253
rwrist -21.13848798002359
rhand -15.370591069891251 9.181441787018631
rfingers 7.125020000000059
rthumb 10.796724776520438 31.759608758611797
58
root -0.22352861229492688 18.788147880945765 25.55604776286698 4.80484609634021 5.288444001237767 -4.144347873076136
lfemur -35.560844064408414 -1.3566186415048331 -18.89422578052985
ltibia 26.836943040839287
lfoot 7.052478068054212 -14.68626324698996
ltoes -18.474578530774398
rfemur 16.86359610830094 8.784914227647882 36.63801848299768
rtibia 40.658569328919704
rfoot 29.444597354618733 -3.035813493499253
rtoes 12.40498619588542
lowerback 10.93386671102286 2.7957503206307583 6.84355163213511
upperback -1.9213746636341331 4.704107796269347 0.31689642898987325
thorax -7.90445562778297 1.9943553020207254 -4.165863253867856
lowerneck -18.65869315095341 -6.698461982282899 -2.366324632275474
upperneck 16.371493215841838 -9.274021198497035 4.040206210002507
head 8.536831974627539 -4.172785307854616 0.6249157374908204
lclavicle -1.6075413932803817e-17 -7.841778781238547e-17
lhumerus -75.86417497013036 1.4020035828196455 92.98053396204045
lradius 121.58255817396976
lwrist 40.70578238965183
lhand -21.93291989369081 1.4771271331071674
lfingers 7.12502000000006
lthumb 4.4722448266821395 31.311449826873847
rclavicle -1.6075413932803817e-17 -7.841778781238547e-17
rhumerus -35.475353304458935 19.441095046083348 -97.39639311235317
rradius 121.61837920775636
rwrist -20.68775847249174
rhand -16.785556758624118 4.59576883321057
rfingers 7.12502000000006
rthumb 9.434903662447514 28.287001927806205
